<svg width="40" height="40" viewBox="0 0 40 40" fill="none" xmlns="http://www.w3.org/2000/svg">
<g id="Home Page">
<g id="Browse Categories Section">
<g id="Cat / Handyperson">
<g id="Icon / Handyperson">
<g id="Group">
<path id="Subtract" d="M33.7886 6.21138C36.7175 9.14031 36.7175 13.8891 33.7886 16.818C30.8597 19.7469 26.1109 19.7469 23.182 16.818C20.253 13.8891 20.253 9.14031 23.182 6.21138C26.1109 3.28245 30.8597 3.28245 33.7886 6.21138ZM30.7834 9.21659C29.5142 7.94738 27.4564 7.94738 26.1872 9.21659C24.918 10.4858 24.918 12.5436 26.1872 13.8128C27.4564 15.082 29.5142 15.082 30.7834 13.8128C32.0526 12.5436 32.0526 10.4858 30.7834 9.21659Z" fill="#CD5C5C"/>
<rect id="Rectangle" x="22.6516" y="12.7521" width="6.5" height="17" rx="2.5" transform="rotate(45 22.6516 12.7521)" fill="#CD5C5C"/>
<path id="Subtract_2" d="M16.818 23.182C19.747 26.1109 19.747 30.8596 16.818 33.7886C15.1729 35.4336 12.9539 36.1535 10.8055 35.9506L13.0822 31.0402C13.2787 30.9195 13.4659 30.7768 13.636 30.6066C14.8076 29.435 14.8076 27.5355 13.636 26.3639C12.4645 25.1924 10.565 25.1924 9.3934 26.3639C8.69405 27.0633 8.41537 28.0215 8.55095 28.93L6.27218 33.8452C6.25242 33.8259 6.23101 33.8082 6.21142 33.7886C3.28248 30.8596 3.28248 26.1109 6.21142 23.182C9.14035 20.253 13.8891 20.253 16.818 23.182Z" fill="#CD5C5C"/>
</g>
</g>
</g>
</g>
</g>
</svg>
