<svg width="40" height="40" viewBox="0 0 40 40" fill="none" xmlns="http://www.w3.org/2000/svg">
<g id="Home Page">
<g id="Browse Categories Section">
<g id="Cat / Landscaping">
<g id="Icon / Landscaping">
<path id="Vector" d="M3 3H3.1H3ZM17.5 34C16.5 23 18.5 13 20 5C22 14 23 25 23 34H17.5ZM9 34C6.5 27 5.5 20 4.5 14C8.5 20 11.5 27 13.5 34H9ZM26.5 34C29.5 28 32 23 34.5 17C32.5 25 30.5 30 30.5 34H26.5Z" fill="#CD5C5C"/>
<path id="Vector_2" d="M3 3H3.1H3ZM13 34C12 25 12.5 17 12 10C15 18 16.5 27 17 34H13ZM22 34C23 25 25 17 27.5 9C27 20 26 28 25.5 34H22Z" fill="#A84545"/>
<rect id="Rectangle" x="6" y="33" width="28" height="2" rx="1" fill="#A84545"/>
</g>
</g>
</g>
</g>
</svg>
